<?xml version="1.0" encoding="UTF-8"?>
<svg width="40px" height="40px" viewBox="0 0 40 40" version="1.1" xmlns="http://www.w3.org/2000/svg" xmlns:xlink="http://www.w3.org/1999/xlink">
    <!-- Generator: Sketch 50.2 (55047) - http://www.bohemiancoding.com/sketch -->
    <title>ig_icon</title>
    <desc>Created with Sketch.</desc>
    <defs></defs>
    <g id="ig_icon" stroke="none" stroke-width="1" fill="none" fill-rule="evenodd">
        <g id="ig-logo" fill="#373737" fill-rule="nonzero">
            <path d="M19.6933333,9.57333333 C14.1042117,9.57333333 9.57333333,14.1042117 9.57333333,19.6933333 C9.57333333,25.282455 14.1042117,29.8133333 19.6933333,29.8133333 C25.282455,29.8133333 29.8133333,25.282455 29.8133333,19.6933333 C29.8133333,17.0093425 28.7471221,14.4352809 26.849254,12.5374127 C24.9513858,10.6395446 22.3773242,9.57333333 19.6933333,9.57333333 Z M19.6933333,26.2666667 C16.0629816,26.2666667 13.12,23.3236851 13.12,19.6933333 C13.12,16.0629816 16.0629816,13.12 19.6933333,13.12 C23.3236851,13.12 26.2666667,16.0629816 26.2666667,19.6933333 C26.2666667,23.3236851 23.3236851,26.2666667 19.6933333,26.2666667 Z" id="Shape"></path>
            <circle id="Oval" cx="30.2133333" cy="9.2" r="2.36"></circle>
            <path d="M38.3733333,6.8 C37.3491813,4.15515716 35.2581762,2.06415203 32.6133333,1.04 C31.0812968,0.464809367 29.4627726,0.153728119 27.8266667,0.12 C25.72,0.0266666667 25.0533333,0 19.7066667,0 C14.36,0 13.68,0 11.5866667,0.12 C9.95056072,0.153728119 8.33203655,0.464809367 6.8,1.04 C4.15515716,2.06415203 2.06415203,4.15515716 1.04,6.8 C0.464809367,8.33203655 0.153728119,9.95056072 0.12,11.5866667 C0.0266666667,13.6933333 0,14.36 0,19.7066667 C0,25.0533333 0,25.7333333 0.12,27.8266667 C0.153728119,29.4627726 0.464809367,31.0812968 1.04,32.6133333 C2.06415203,35.2581762 4.15515716,37.3491813 6.8,38.3733333 C8.32805233,38.9713072 9.94670118,39.3049562 11.5866667,39.36 C13.6933333,39.4533333 14.36,39.48 19.7066667,39.48 C25.0533333,39.48 25.7333333,39.48 27.8266667,39.36 C29.4627726,39.3262719 31.0812968,39.0151906 32.6133333,38.44 C35.2581762,37.415848 37.3491813,35.3248428 38.3733333,32.68 C38.948524,31.1479635 39.2596052,29.5294393 39.2933333,27.8933333 C39.3866667,25.7866667 39.4133333,25.12 39.4133333,19.7733333 C39.4133333,14.4266667 39.4133333,13.7466667 39.2933333,11.6533333 C39.2671789,9.99477537 38.9559764,8.35306974 38.3733333,6.8 Z M35.7066667,27.6666667 C35.6952488,28.9278344 35.4651723,30.1774658 35.0266667,31.36 C34.3629881,33.081996 33.001996,34.4429881 31.28,35.1066667 C30.1100872,35.5406503 28.8743771,35.7706547 27.6266667,35.7866667 C25.5466667,35.88 24.96,35.9066667 19.6266667,35.9066667 C14.2933333,35.9066667 13.7466667,35.9066667 11.6266667,35.7866667 C10.3789562,35.7706547 9.14324615,35.5406503 7.97333333,35.1066667 C6.24534681,34.4475682 4.87856616,33.0856342 4.21333333,31.36 C3.77934972,30.1900872 3.54934529,28.9543771 3.53333333,27.7066667 C3.44,25.6266667 3.41333333,25.04 3.41333333,19.7066667 C3.41333333,14.3733333 3.41333333,13.8266667 3.53333333,11.7066667 C3.54475119,10.4454989 3.77482773,9.19586757 4.21333333,8.01333333 C4.87856616,6.28769909 6.24534681,4.92576517 7.97333333,4.26666667 C9.14324615,3.83268305 10.3789562,3.60267862 11.6266667,3.58666667 C13.7066667,3.49333333 14.2933333,3.46666667 19.6266667,3.46666667 C24.96,3.46666667 25.5066667,3.46666667 27.6266667,3.58666667 C28.8743771,3.60267862 30.1100872,3.83268305 31.28,4.26666667 C33.001996,4.93034523 34.3629881,6.29133734 35.0266667,8.01333333 C35.4606503,9.18324615 35.6906547,10.4189562 35.7066667,11.6666667 C35.8,13.7466667 35.8266667,14.3333333 35.8266667,19.6666667 C35.8266667,25 35.8266667,25.5733333 35.7333333,27.6666667 L35.7066667,27.6666667 Z" id="Shape"></path>
        </g>
    </g>
</svg>