<?xml version="1.0" encoding="UTF-8"?>
<svg width="40px" height="40px" viewBox="0 0 40 40" version="1.1" xmlns="http://www.w3.org/2000/svg" xmlns:xlink="http://www.w3.org/1999/xlink">
    <!-- Generator: Sketch 50.2 (55047) - http://www.bohemiancoding.com/sketch -->
    <title>linked_in_icon</title>
    <desc>Created with Sketch.</desc>
    <defs></defs>
    <g id="linked_in_icon" stroke="none" stroke-width="1" fill="none" fill-rule="evenodd">
        <g id="linked_in" fill="#373737" fill-rule="nonzero">
            <path d="M37.0463576,0 L2.95550239,0 C1.32309416,0 0,1.28271777 0,2.86591122 L0,37.1328798 C0,38.7161663 1.32355916,40 2.95550239,40 L37.0463576,40 C38.6783938,40 40,38.7153293 40,37.1328798 L40,2.86591122 C40,1.28318275 38.6783938,0 37.0463576,0 Z M12.1268597,33.4827187 L6.08314559,33.4827187 L6.08314559,15.4232094 L12.1268597,15.4232094 L12.1268597,33.4827187 Z M9.10560713,12.9559795 L9.06496665,12.9559795 C7.03824344,12.9559795 5.72444916,11.5699413 5.72444916,9.83469653 C5.72444916,8.06448463 7.07683795,6.71601746 9.14373665,6.71601746 C11.2108213,6.71601746 12.4823012,8.06411264 12.5224767,9.83469653 C12.5224767,11.5703133 11.2112863,12.9559795 9.10560713,12.9559795 Z M33.9126695,33.4827187 L27.8709083,33.4827187 L27.8709083,23.820254 C27.8709083,21.3923621 26.9955105,19.7357004 24.8105963,19.7357004 C23.1391286,19.7357004 22.1469242,20.8533472 21.7112247,21.9323999 C21.5497788,22.3177826 21.5097893,22.8567974 21.5097893,23.3950683 L21.5097893,33.4823467 L15.4691442,33.4823467 C15.4691442,33.4823467 15.5481931,17.1166982 15.4691442,15.4229305 L21.5107193,15.4229305 L21.5107193,17.9832511 C22.3127411,16.7529841 23.7459458,14.9980238 26.954312,14.9980238 C30.9309414,14.9980238 33.9126695,17.577688 33.9126695,23.1273278 L33.9126695,33.4827187 Z M21.4716598,18.0449301 C21.4827598,18.0267301 21.4982598,18.0048301 21.5136598,17.9835301 L21.5136598,18.0449301 L21.4716598,18.0449301 Z" id="LinkedIn__x28_alt_x29_"></path>
        </g>
    </g>
</svg>